HIERARCHY
ROOT HipCenter
{
    OFFSET 0.0 0.0 -0.0
    CHANNELS 6 Xposition Yposition Zposition Zrotation Xrotation Yrotation
    JOINT Spine
    {
        OFFSET 0.0 27.761974334716797 0.0
        CHANNELS 3 Zrotation Xrotation Yrotation
        JOINT ShoulderCenter
        {
            OFFSET 0.0 20.85029411315918 0.0
            CHANNELS 3 Zrotation Xrotation Yrotation
            JOINT LeftShoulder
            {
                OFFSET 16.07372283935547 0.0 0.0
                CHANNELS 3 Zrotation Xrotation Yrotation
                JOINT LeftElbow
                {
                    OFFSET 24.819278717041016 0.0 0.0
                    CHANNELS 3 Zrotation Xrotation Yrotation
                    JOINT LeftWrist
                    {
                        OFFSET 22.189950942993164 0.0 0.0
                        CHANNELS 3 Zrotation Xrotation Yrotation
                        JOINT LeftHand
                        {
                            OFFSET 6.646923065185547 0.0 0.0
                            CHANNELS 3 Zrotation Xrotation Yrotation
                            End Site
                            {
                                OFFSET 2.658769130706787 0.0 0.0
                            }
                        }
                    }
                }
            }
            JOINT RightShoulder
            {
                OFFSET -16.07372283935547 0.0 0.0
                CHANNELS 3 Zrotation Xrotation Yrotation
                JOINT RightElbow
                {
                    OFFSET -24.819278717041016 0.0 0.0
                    CHANNELS 3 Zrotation Xrotation Yrotation
                    JOINT RightWrist
                    {
                        OFFSET -22.189950942993164 0.0 0.0
                        CHANNELS 3 Zrotation Xrotation Yrotation
                        JOINT RightHand
                        {
                            OFFSET -6.646923065185547 0.0 0.0
                            CHANNELS 3 Zrotation Xrotation Yrotation
                            End Site
                            {
                                OFFSET -2.658769130706787 0.0 0.0
                            }
                        }
                    }
                }
            }
            End Site
            {
                OFFSET 0.0 8.340116500854492 0.0
            }
        }
    }
    JOINT LeftHip
    {
        OFFSET 8.521768569946289 0.0 0.0
        CHANNELS 3 Zrotation Xrotation Yrotation
        JOINT LeftKnee
        {
            OFFSET 0.0 -30.08674430847168 0.0
            CHANNELS 3 Zrotation Xrotation Yrotation
            JOINT LeftAnkle
            {
                OFFSET 0.0 -34.07088851928711 0.0
                CHANNELS 3 Zrotation Xrotation Yrotation
                JOINT LeftFoot
                {
                    OFFSET 0.0 -11.55875015258789 0.0
                    CHANNELS 3 Zrotation Xrotation Yrotation
                    End Site
                    {
                        OFFSET 0.0 0.0 4.623499870300293
                    }
                }
            }
        }
    }
    JOINT RightHip
    {
        OFFSET -8.521768569946289 0.0 0.0
        CHANNELS 3 Zrotation Xrotation Yrotation
        JOINT RightKnee
        {
            OFFSET 0.0 -30.08674430847168 0.0
            CHANNELS 3 Zrotation Xrotation Yrotation
            JOINT RightAnkle
            {
                OFFSET 0.0 -34.07088851928711 0.0
                CHANNELS 3 Zrotation Xrotation Yrotation
                JOINT RightFoot
                {
                    OFFSET 0.0 -11.55875015258789 0.0
                    CHANNELS 3 Zrotation Xrotation Yrotation
                    End Site
                    {
                        OFFSET 0.0 0.0 4.623499870300293
                    }
                }
            }
        }
    }
}
MOTION
Frames: 5
Frame Time: 0.03333333333333333
34.63301086425781 21.070661544799805 -379.5857849121094 -0.7630300398064618 18.150187066285874 168.17678099884313 0.08557137313240998 -1.783831536366814 0.02866121512316769 -1.5331419411210625e-07 -4.59989599278055e-07 -7.240542519753536 -80.12133241716597 -1.6141621328624742 -3.648129261764862 2.8277659500371875e-06 5.648659056637648e-06 18.780960051525163 -4.563862011084449e-06 -36.89132970639913 17.92829814158336 -2.385416011097637e-15 1.5902773407317582e-15 -1.5902773407317582e-15 70.6400263958513 -45.84742892752546 -7.219017744952791 -3.153443593147716e-06 -7.493930754996976e-06 -16.131864851145227 1.4082675132492057e-06 -4.5130393630801695 -16.094560313581308 3.1805546814635168e-15 -3.1805546814635164e-15 9.54166404439055e-15 13.39457235264297 2.0211569576294117 26.068377764286318 -12.047897878144811 -1.9734604036783685 -0.17617770467116514 73.57780241997044 61.27287979262821 -65.78676636813266 2.1866313435061676e-15 3.034560579909484e-32 1.5902773407317584e-15 -6.108441365505543 1.2649434011996252 -23.81393208985864 10.037448369172955 -4.784316012555169 0.9162604662754622 -14.89212142861893 46.08366975846235 2.93825155348404 7.951386703658791e-16 -3.1805546814635168e-15 -2.3854160110976376e-15
34.58873748779297 21.036909103393555 -379.5874938964844 -0.7746335883821444 18.059173292606914 168.06936468124567 0.050375201761665024 -1.7279210017696203 0.03177862621543713 5.252598895994923e-08 -7.372015976661345e-07 -7.189538654143764 -80.21959284527752 -3.698906138593757 -3.146300883871806 -9.059566486075301e-07 2.7490172474803298e-06 18.84108428518149 -1.5621110884095854e-06 -35.991519595428485 16.42255715804976 0.0 0.0 -3.1805546814635164e-15 71.3039258504799 -44.289940419975615 -7.074440264007963 7.382014190110843e-07 1.593477933093211e-06 -16.64731980426374 -1.9011413614466803e-07 8.323045118975967 -18.87868235520444 -1.5902773407317584e-15 -1.5902773407317584e-15 -2.2069531490250793e-32 13.257491762500878 2.004475656706851 26.019903378927072 -11.958558617078237 -2.13048745931544 -0.18221019231236238 73.61908356552146 61.41395069323939 -66.09452966592654 -1.5902773407317584e-15 -6.3611093629270335e-15 1.5902773407317584e-15 -6.238836031023401 1.515093121502242 -23.740050079415163 9.840160523980074 -4.749839657189379 0.878674479569025 -11.82580485703826 50.62116736672867 1.0582322956876753 0.0 0.0 -8.348956038841732e-15
34.53324890136719 21.10148048400879 -379.6119079589844 -0.7600455397743345 18.041439265503943 167.83863581494327 0.10074649089975139 -1.7618334136185934 0.02597568855301669 6.691548658018529e-08 8.545213249670005e-09 -6.983750031249921 -80.43548234686439 -4.099261637242014 -2.13391412227432 -1.8188824876359915e-06 3.8466777562658944e-07 19.074112213142026 3.0618722120156433e-06 -46.873383141585315 15.914674803727344 -3.1805546814635168e-15 3.1805546814635168e-15 -3.1805546814635168e-15 72.05067857996522 -42.99953600582997 -6.308398485956348 6.6305892898245155e-06 1.4175694348764198e-06 -16.622171118866934 -3.052030697750506e-06 3.1395919585798957 -17.048268184052553 0.0 0.0 3.1805546814635168e-15 15.971927631860085 3.406581334917756 25.816044062271292 -15.57273685359363 -1.2611719806655521 -0.12634527985417718 19.712000938396333 41.0044191905096 -9.285258543205561 1.1927080055488188e-15 -4.138037154422024e-33 -3.975693351829396e-16 -6.211070532369355 1.3301173428065767 -23.623888891759925 9.788844927932447 -5.52736433129597 1.0054317607513727 -26.60316333753867 48.42434996773145 12.359115318023427 -1.590277340731758e-15 -3.180554681463516e-15 -1.987846675914698e-16
34.4687614440918 21.157400131225586 -379.5849914550781 -0.7842189528231587 17.97046400737895 167.756130721951 0.11265401192585885 -1.7826405292472827 0.03204180934941916 7.319093243492e-08 -9.11853947249227e-07 -6.736977054956448 -80.67620181255246 -5.166327722299635 -2.346726455073412 -1.2809925983890263e-06 2.9107845455193734e-06 21.09472546705508 -2.547444376591892e-06 -28.744289242847792 14.876077668263742 8.34895603884173e-15 -1.5902773407317582e-15 1.1586504032381667e-31 71.36789112297002 -44.032690985680865 -6.659962200729473 -8.659235364107781e-08 -2.9775799533080867e-06 -16.724642473766167 -3.030809940329739e-06 7.711912327213792 -18.303187729090077 6.361109362927032e-15 -3.180554681463516e-15 -3.180554681463516e-15 13.42584694138195 2.972987250955743 25.946543051297997 -12.466737440758205 -2.7390760420473814 -0.23575149351842822 72.89225674251401 61.68764801594266 -65.32299634416779 2.3854160110976376e-15 0.0 0.0 -6.067917229784152 1.8017188804877864 -23.666100395932478 10.550005218790433 -5.574975789024507 1.0974509677342705 -17.201904450740788 43.842203938056464 4.233958818738937 -7.951386703658792e-16 2.758691436281349e-33 -3.975693351829396e-16
34.42946243286133 21.154239654541016 -379.5757141113281 -0.7789354966710667 17.948855383053438 167.7974578063357 0.10858615969384895 -1.7893661022925034 0.027193994553739602 1.3328976961159824e-07 -2.934351024730292e-06 -6.896598046684317 -80.69142191079898 -5.05768255283645 -1.5567271227493265 4.578078149102665e-06 -1.185214799569655e-06 20.398251122143883 6.672052101511438e-06 -33.827577175529754 13.885151788420416 -1.4710065401768764e-14 1.5902773407317584e-15 2.041431662848198e-31 70.8940715338281 -44.74058823608741 -6.50110639809181 -6.069533706690452e-07 8.239827488879292e-08 -17.023945576821074 -3.2398411008579587e-06 14.486743395190432 -18.846243904793706 1.5902773407317582e-15 -6.361109362927033e-15 8.827812596100317e-32 13.623210672476032 2.985341476939285 25.94853169392463 -12.800667330586364 -2.4174399178151034 -0.2201465965200484 72.70962921464582 61.47029619281785 -64.76804319364291 3.975693351829396e-16 5.517382872562698e-33 1.5902773407317584e-15 -6.161952649656893 1.3819224623279454 -23.693193106521075 9.77381382173786 -4.360501131250934 0.793357419382302 -9.401311717330193 43.57530278665353 -0.6138996230727648 -2.3854160110976376e-15 3.1805546814635168e-15 3.975693351829397e-16
